0
SECTION
2
HEADER
9
$INSUNITS
70
4
9
$ACADVER
1
AC1014
9
$HANDSEED
5
FFFF
0
ENDSEC
0
SECTION
2
TABLES
0
TABLE
2
VPORT
5
8
100
AcDbSymbolTable
0
ENDTAB
0
TABLE
2
LTYPE
5
5
100
AcDbSymbolTable
0
LTYPE
5
14
100
AcDbSymbolTableRecord
100
AcDbLinetypeTableRecord
2
BYBLOCK
70
0
0
LTYPE
5
15
100
AcDbSymbolTableRecord
100
AcDbLinetypeTableRecord
2
BYLAYER
70
0
0
ENDTAB
0
TABLE
2
LAYER
5
2
100
AcDbSymbolTable
70
2
0
LAYER
5
50
100
AcDbSymbolTableRecord
100
AcDbLayerTableRecord
2
0
70
0
6
CONTINUOUS
0
ENDTAB
0
TABLE
2
STYLE
5
3
100
AcDbSymbolTable
70
1
0
STYLE
5
11
100
AcDbSymbolTableRecord
100
AcDbTextStyleTableRecord
2
STANDARD
70
0
0
ENDTAB
0
TABLE
2
VIEW
5
6
100
AcDbSymbolTable
70
0
0
ENDTAB
0
TABLE
2
UCS
5
7
100
AcDbSymbolTable
70
0
0
ENDTAB
0
TABLE
2
APPID
5
9
100
AcDbSymbolTable
70
2
0
APPID
5
12
100
AcDbSymbolTableRecord
100
AcDbRegAppTableRecord
2
ACAD
70
0
0
ENDTAB
0
TABLE
2
DIMSTYLE
5
A
100
AcDbSymbolTable
70
1
0
ENDTAB
0
TABLE
2
BLOCK_RECORD
5
1
100
AcDbSymbolTable
70
1
0
BLOCK_RECORD
5
1F
100
AcDbSymbolTableRecord
100
AcDbBlockTableRecord
2
*MODEL_SPACE
0
BLOCK_RECORD
5
1B
100
AcDbSymbolTableRecord
100
AcDbBlockTableRecord
2
*PAPER_SPACE
0
ENDTAB
0
ENDSEC
0
SECTION
2
BLOCKS
0
BLOCK
5
20
100
AcDbEntity
100
AcDbBlockBegin
2
*MODEL_SPACE
0
ENDBLK
5
21
100
AcDbEntity
100
AcDbBlockEnd
0
BLOCK
5
1C
100
AcDbEntity
100
AcDbBlockBegin
2
*PAPER_SPACE
0
ENDBLK
5
1D
100
AcDbEntity
100
AcDbBlockEnd
0
ENDSEC
0
SECTION
2
ENTITIES
0
LWPOLYLINE
5
100
100
AcDbEntity
8
0
100
AcDbPolyline
90
8
70
1
43
0.0
10
-0.82499999999999973
20
1.9500000000000028
10
-0.67500000000000049
20
1.9500000000000028
42
-0.41421356237309503
10
-0.62500000000000011
20
1.9000000000000026
10
-0.62500000000000011
20
1.3499999999999992
42
-0.41421356237309503
10
-0.67500000000000049
20
1.2999999999999989
10
-0.82499999999999973
20
1.2999999999999989
42
-0.41421356237309503
10
-0.87500000000000011
20
1.3499999999999992
10
-0.87500000000000011
20
1.9000000000000026
42
-0.41421356237309503
0
LINE
5
101
100
AcDbEntity
8
0
100
AcDbLine
10
-0.75000000000000011
20
1.9500000000000028
30
0
11
-0.75000000000000011
21
1.2999999999999989
31
0
0
LINE
5
102
100
AcDbEntity
8
0
100
AcDbLine
10
-0.87500000000000022
20
1.625
30
0
11
-0.625
21
1.625
31
0
0
LWPOLYLINE
5
103
100
AcDbEntity
8
0
100
AcDbPolyline
90
8
70
1
43
0.0
10
-0.375
20
1.3499999999999992
10
-0.37500000000000011
20
1.9000000000000021
42
-0.41421356237309265
10
-0.32499999999999968
20
1.9500000000000028
10
-0.17500000000000038
20
1.9500000000000028
42
-0.4142135623730922
10
-0.12500000000000006
20
1.9000000000000026
10
-0.12499999999999997
20
1.3499999999999992
42
-0.4142135623730922
10
-0.17500000000000038
20
1.2999999999999989
10
-0.32499999999999968
20
1.2999999999999989
42
-0.41421356237309265
0
LWPOLYLINE
5
104
100
AcDbEntity
8
0
100
AcDbPolyline
90
8
70
1
43
0.0
10
0.12500000000000011
20
1.3499999999999992
10
0.12500000000000006
20
1.9000000000000026
42
-0.4142135623730922
10
0.17500000000000043
20
1.9500000000000028
10
0.32499999999999973
20
1.9500000000000028
42
-0.41421356237309176
10
0.37500000000000006
20
1.9000000000000026
10
0.37500000000000011
20
1.3499999999999992
42
-0.4142135623730922
10
0.32499999999999973
20
1.2999999999999989
10
0.17500000000000043
20
1.2999999999999989
42
-0.4142135623730922
0
LWPOLYLINE
5
105
100
AcDbEntity
8
0
100
AcDbPolyline
90
8
70
1
43
0.0
10
0.62500000000000011
20
1.3499999999999992
10
0.62500000000000011
20
1.9000000000000026
42
-0.41421356237309503
10
0.67500000000000049
20
1.9500000000000028
10
0.82499999999999973
20
1.9500000000000028
42
-0.41421356237309503
10
0.87500000000000011
20
1.9000000000000026
10
0.87500000000000011
20
1.3499999999999992
42
-0.41421356237309503
10
0.82499999999999973
20
1.2999999999999989
10
0.67500000000000049
20
1.2999999999999989
42
-0.41421356237309503
0
LWPOLYLINE
5
106
100
AcDbEntity
8
0
100
AcDbPolyline
90
4
70
1
43
0.0
10
-1.0749999999999997
20
1.3250000000000004
10
-1.7500000000000004
20
1.3250000000000002
10
-1.7500000000000002
20
2
10
-1.0749999999999997
20
2
0
LWPOLYLINE
5
107
100
AcDbEntity
8
0
100
AcDbPolyline
90
12
70
1
43
0.0
10
-1.125
20
1.8999999999999995
10
-1.125
20
1.4250000000000007
42
-0.41421356237309426
10
-1.1750000000000003
20
1.375
10
-1.6500000000000001
20
1.375
42
-0.41421356237309176
10
-1.7000000000000004
20
1.4250000000000005
10
-1.7000000000000002
20
1.575
42
-0.41421356237309176
10
-1.6499999999999999
20
1.6250000000000004
10
-1.4749999999999996
20
1.625
42
0.41421356237309748
10
-1.3749999999999996
20
1.7249999999999999
10
-1.3749999999999996
20
1.8999999999999997
42
-0.41421356237309176
10
-1.3249999999999993
20
1.9500000000000002
10
-1.1750000000000003
20
1.9500000000000002
42
-0.41421356237309587
0
LINE
5
108
100
AcDbEntity
8
0
100
AcDbLine
10
-1.7000000000000004
20
1.5000000000000002
30
0
11
-1.125
21
1.5000000000000002
31
0
0
LINE
5
109
100
AcDbEntity
8
0
100
AcDbLine
10
-1.2499999999999998
20
1.9500000000000002
30
0
11
-1.2499999999999998
21
1.375
31
0
0
LINE
5
110
100
AcDbEntity
8
0
100
AcDbLine
10
-1.4125000000000001
20
1.3250000000000002
30
0
11
-1.4125000000000001
21
1.375
31
0
0
LINE
5
111
100
AcDbEntity
8
0
100
AcDbLine
10
-1.0749999999999997
20
1.6625000000000001
30
0
11
-1.125
21
1.6625000000000003
31
0
0
LINE
5
112
100
AcDbEntity
8
0
100
AcDbLine
10
-1.2499999999999998
20
1.9500000000000002
30
0
11
-1.2499999999999998
21
2
31
0
0
LINE
5
113
100
AcDbEntity
8
0
100
AcDbLine
10
-1.7000000000000004
20
1.5000000000000002
30
0
11
-1.7500000000000004
21
1.5000000000000002
31
0
0
LINE
5
114
100
AcDbEntity
8
0
100
AcDbLine
10
0
20
0
30
0
11
0
21
2.1475375151556881
31
0
0
LWPOLYLINE
5
115
100
AcDbEntity
8
0
100
AcDbPolyline
90
4
70
1
43
0.0
10
1.7500000000000004
20
1.3250000000000002
10
1.7500000000000002
20
2
10
1.0749999999999997
20
2
10
1.0749999999999997
20
1.3250000000000004
0
LWPOLYLINE
5
116
100
AcDbEntity
8
0
100
AcDbPolyline
90
12
70
1
43
0.0
10
1.125
20
1.8999999999999995
10
1.125
20
1.4250000000000007
42
0.41421356237309587
10
1.1750000000000003
20
1.375
10
1.6500000000000001
20
1.375
42
0.41421356237309176
10
1.7000000000000004
20
1.4250000000000005
10
1.7000000000000002
20
1.575
42
0.41421356237309176
10
1.6499999999999999
20
1.6250000000000004
10
1.4749999999999996
20
1.625
42
-0.41421356237309748
10
1.3749999999999996
20
1.7249999999999999
10
1.3749999999999996
20
1.8999999999999999
42
0.41421356237309176
10
1.3249999999999995
20
1.9500000000000002
10
1.1750000000000003
20
1.9500000000000002
42
0.41421356237309587
0
LWPOLYLINE
5
117
100
AcDbEntity
8
0
100
AcDbPolyline
90
8
70
1
43
0.0
10
-1.6499999999999999
20
1.125
10
-1.1000000000000005
20
1.125
42
-0.41421356237309748
10
-1.0500000000000003
20
1.0749999999999997
10
-1.05
20
0.92500000000000038
42
-0.41421356237309748
10
-1.1000000000000005
20
0.875
10
-1.6499999999999999
20
0.87500000000000022
42
-0.41421356237309587
10
-1.6999999999999997
20
0.92500000000000038
10
-1.7000000000000002
20
1.0749999999999995
42
-0.41421356237309587
0
LINE
5
118
100
AcDbEntity
8
0
100
AcDbLine
10
-1.375
20
1.125
30
0
11
-1.375
21
0.87500000000000011
31
0
0
LINE
5
119
100
AcDbEntity
8
0
100
AcDbLine
10
-1.7000000000000002
20
1
30
0
11
-1.05
21
1
31
0
0
LWPOLYLINE
5
120
100
AcDbEntity
8
0
100
AcDbPolyline
90
4
70
1
43
0.0
10
-1.7500000000000002
20
0.67500000000000016
10
-0.95000000000000018
20
0.67500000000000016
10
-0.94999999999999996
20
-0.17499999999999974
10
-1.7500000000000002
20
-0.17499999999999974
0
LWPOLYLINE
5
121
100
AcDbEntity
8
0
100
AcDbPolyline
90
16
70
1
43
0.0
10
-1.6500000000000001
20
0.62500000000000011
10
-1.05
20
0.62500000000000022
42
-0.41421356237309503
10
-1
20
0.57500000000000029
10
-0.99999999999999989
20
-0.074999999999999706
42
-0.41421356237309587
10
-1.05
20
-0.12499999999999975
10
-1.6500000000000001
20
-0.12499999999999976
42
-0.41421356237309503
10
-1.7000000000000002
20
-0.07499999999999972
10
-1.7000000000000002
20
0.074999999999999706
42
-0.41421356237309465
10
-1.6499999999999999
20
0.12499999999999997
10
-1.4249999999999996
20
0.12500000000000022
42
0.41421356237309709
10
-1.3749999999999996
20
0.17500000000000074
10
-1.3749999999999998
20
0.32500000000000034
42
0.41421356237309465
10
-1.4250000000000003
20
0.37500000000000061
10
-1.6499999999999999
20
0.375
42
-0.41421356237309548
10
-1.7000000000000002
20
0.42500000000000038
10
-1.7000000000000002
20
0.57500000000000007
42
-0.41421356237309503
0
LINE
5
122
100
AcDbEntity
8
0
100
AcDbLine
10
-1.7000000000000002
20
0.49999999999999994
30
0
11
-1
21
0.50000000000000022
31
0
0
LINE
5
123
100
AcDbEntity
8
0
100
AcDbLine
10
-1.7000000000000002
20
-5.0994107482915329e-17
30
0
11
-0.99999999999999989
21
1.214306433183765e-16
31
0
0
LINE
5
124
100
AcDbEntity
8
0
100
AcDbLine
10
-0.99999999999999989
20
0.25000000000000039
30
0
11
-0.94999999999999996
21
0.2500000000000005
31
0
0
LINE
5
125
100
AcDbEntity
8
0
100
AcDbLine
10
-1.3500000000000001
20
-0.12499999999999978
30
0
11
-1.3500000000000001
21
-0.17499999999999974
31
0
0
LINE
5
126
100
AcDbEntity
8
0
100
AcDbLine
10
-1.3500000000000001
20
0.62500000000000022
30
0
11
-1.3500000000000001
21
0.67500000000000016
31
0
0
LINE
5
127
100
AcDbEntity
8
0
100
AcDbLine
10
-1.7000000000000002
20
0.49999999999999994
30
0
11
-1.7500000000000002
21
0.5
31
0
0
LINE
5
128
100
AcDbEntity
8
0
100
AcDbLine
10
0
20
0
30
0
11
-0.99999999999999989
21
1.214306433183765e-16
31
0
0
LWPOLYLINE
5
129
100
AcDbEntity
8
0
100
AcDbPolyline
90
8
70
1
43
0.0
10
-0.64999999999999991
20
1.0000000000000004
10
0.64999999999999991
20
1.0000000000000004
42
-0.41421356237309503
10
0.69999999999999996
20
0.95000000000000029
10
0.69999999999999996
20
0.16200000000000006
42
-0.41421356237309503
10
0.64999999999999991
20
0.11200000000000004
10
-0.64999999999999991
20
0.11200000000000002
42
-0.41421356237309503
10
-0.69999999999999996
20
0.16200000000000006
10
-0.69999999999999996
20
0.95000000000000062
42
-0.41421356237309342
0
LINE
5
130
100
AcDbEntity
8
0
100
AcDbLine
10
-0.69999999999999996
20
1.0000000000000004
30
0
11
0.69999999999999996
21
0.11200000000000004
31
0
0
LINE
5
131
100
AcDbEntity
8
0
100
AcDbLine
10
0.69999999999999996
20
1.0000000000000004
30
0
11
-0.69999999999999996
21
0.11200000000000004
31
0
0
LWPOLYLINE
5
132
100
AcDbEntity
8
0
100
AcDbPolyline
90
24
70
1
43
0.0
10
-0.69999999999999973
20
-0.188
10
-0.2000000000000004
20
-0.188
42
-0.41421356237309548
10
-0.14999999999999999
20
-0.23800000000000032
10
-0.15000000000000002
20
-0.99999999999999978
42
-0.41421356237309548
10
-0.20000000000000029
20
-1.05
10
-1
20
-1.05
42
0.41421356237309426
10
-1.05
20
-1.1000000000000001
10
-1.05
20
-1.0749999999999997
42
-0.41421356237310075
10
-1.1000000000000003
20
-1.125
10
-1.6499999999999979
20
-1.1249999999999993
42
-0.41421356237309342
10
-1.6999999999999982
20
-1.0749999999999993
10
-1.6999999999999982
20
-0.92500000000000004
42
-0.41421356237309587
10
-1.6499999999999977
20
-0.87499999999999978
10
-1.4250000000000032
20
-0.87499999999999978
42
0.41421356237309342
10
-1.3750000000000029
20
-0.82499999999999962
10
-1.3750000000000027
20
-0.67500000000000404
42
0.41421356237309426
10
-1.4250000000000025
20
-0.62500000000000389
10
-1.6500000000000008
20
-0.62500000000000089
42
-0.41421356237308937
10
-1.7000000000000004
20
-0.57500000000000062
10
-1.7000000000000013
20
-0.42500000000000038
42
-0.41421356237309503
10
-1.6500000000000012
20
-0.37499999999999978
10
-0.80000000000000004
20
-0.37499999999999534
42
0.4142135623730922
10
-0.75000000000000011
20
-0.32499999999999502
10
-0.75000000000000011
20
-0.23800000000000032
42
-0.4142135623730952
0
LINE
5
133
100
AcDbEntity
8
0
100
AcDbLine
10
-1.6999999999999982
20
-0.99999999999999956
30
0
11
-1.05
21
-0.99999999999999933
31
0
0
LINE
5
134
100
AcDbEntity
8
0
100
AcDbLine
10
-1.7000000000000011
20
-0.5
30
0
11
-0.14999999999999997
21
-0.49999999999999989
31
0
0
LINE
5
135
100
AcDbEntity
8
0
100
AcDbLine
10
-1.749999999999998
20
-1.1749999999999998
30
0
11
-1.749999999999998
21
-0.32499999999999929
31
0
0
LINE
5
136
100
AcDbEntity
8
0
100
AcDbLine
10
-1.749999999999998
20
-0.32499999999999929
30
0
11
-0.80000000000000004
21
-0.3249999999999989
31
0
0
LINE
5
137
100
AcDbEntity
8
0
100
AcDbLine
10
-0.80000000000000004
20
-0.3249999999999989
30
0
11
-0.80000000000000004
21
-0.13800000000000001
31
0
0
LINE
5
138
100
AcDbEntity
8
0
100
AcDbLine
10
-0.80000000000000004
20
-0.13800000000000001
30
0
11
-0.74999999999999967
21
-0.13800000000000001
31
0
0
LINE
5
139
100
AcDbEntity
8
0
100
AcDbLine
10
-0.74999999999999967
20
-0.13800000000000001
30
0
11
-0.75000000000000011
21
1.0500000000000003
31
0
0
LINE
5
140
100
AcDbEntity
8
0
100
AcDbLine
10
-0.75000000000000011
20
1.0500000000000003
30
0
11
0
21
1.0500000000000003
31
0
0
LINE
5
141
100
AcDbEntity
8
0
100
AcDbLine
10
-1.749999999999998
20
-1.1749999999999998
30
0
11
-1.0000000000000007
21
-1.1749999999999998
31
0
0
LINE
5
142
100
AcDbEntity
8
0
100
AcDbLine
10
-1.0000000000000007
20
-1.1749999999999998
30
0
11
-1.0000000000000011
21
-1.1000000000000012
31
0
0
LINE
5
143
100
AcDbEntity
8
0
100
AcDbLine
10
-1.0000000000000011
20
-1.1000000000000012
30
0
11
-1.3086492738636934e-16
21
-1.1000000000000001
31
0
0
LINE
5
144
100
AcDbEntity
8
0
100
AcDbLine
10
-1.3086492738636934e-16
20
-1.1000000000000001
30
0
11
0
21
0
31
0
0
LINE
5
145
100
AcDbEntity
8
0
100
AcDbLine
10
-0.59999999999999998
20
-1.05
30
0
11
-0.60000000000000053
21
-1.1000000000000001
31
0
0
LINE
5
146
100
AcDbEntity
8
0
100
AcDbLine
10
-1.3749999999999991
20
-1.125
30
0
11
-1.3749999999999991
21
-1.1749999999999998
31
0
0
LINE
5
147
100
AcDbEntity
8
0
100
AcDbLine
10
-1.0000000000000018
20
-1.1375000000000004
30
0
11
-1.0500000000000009
21
-1.1374999999999995
31
0
0
LINE
5
148
100
AcDbEntity
8
0
100
AcDbLine
10
-1.0500000000000009
20
-1.1374999999999995
30
0
11
-1.05
21
-1.1250000000000002
31
0
0
LINE
5
149
100
AcDbEntity
8
0
100
AcDbLine
10
-1.6999999999999982
20
-0.99999999999999956
30
0
11
-1.7499999999999982
21
-0.99999999999999956
31
0
0
LINE
5
150
100
AcDbEntity
8
0
100
AcDbLine
10
-1.2250000000000008
20
-0.37499999999999756
30
0
11
-1.2250000000000003
21
-0.32499999999999912
31
0
0
LINE
5
151
100
AcDbEntity
8
0
100
AcDbLine
10
-0.75000000000000011
20
-0.28149999999999753
30
0
11
-0.80000000000000004
21
-0.28149999999999831
31
0
0
LINE
5
152
100
AcDbEntity
8
0
100
AcDbLine
10
-0.69999999999999996
20
0.55600000000000027
30
0
11
-0.74999999999999978
21
0.55600000000000016
31
0
0
LINE
5
153
100
AcDbEntity
8
0
100
AcDbLine
10
-0.37500000000000011
20
1.0500000000000003
30
0
11
-0.375
21
1.0000000000000002
31
0
0
LINE
5
154
100
AcDbEntity
8
0
100
AcDbLine
10
0.75000000000000011
20
1.0500000000000003
30
0
11
0
21
1.0500000000000003
31
0
0
LINE
5
155
100
AcDbEntity
8
0
100
AcDbLine
10
0.74999999999999967
20
-0.13800000000000001
30
0
11
0.75000000000000011
21
1.0500000000000003
31
0
0
LINE
5
156
100
AcDbEntity
8
0
100
AcDbLine
10
0.80000000000000004
20
-0.13800000000000001
30
0
11
0.74999999999999967
21
-0.13800000000000001
31
0
0
LINE
5
157
100
AcDbEntity
8
0
100
AcDbLine
10
0.80000000000000004
20
-0.3249999999999989
30
0
11
0.80000000000000004
21
-0.13800000000000001
31
0
0
LINE
5
158
100
AcDbEntity
8
0
100
AcDbLine
10
1.749999999999998
20
-0.32499999999999929
30
0
11
0.80000000000000004
21
-0.3249999999999989
31
0
0
LINE
5
159
100
AcDbEntity
8
0
100
AcDbLine
10
1.749999999999998
20
-1.1749999999999998
30
0
11
1.749999999999998
21
-0.32499999999999929
31
0
0
LINE
5
160
100
AcDbEntity
8
0
100
AcDbLine
10
1.749999999999998
20
-1.1749999999999998
30
0
11
1.0000000000000007
21
-1.1749999999999998
31
0
0
LINE
5
161
100
AcDbEntity
8
0
100
AcDbLine
10
1.0000000000000007
20
-1.1749999999999998
30
0
11
1.0000000000000011
21
-1.1000000000000012
31
0
0
LINE
5
162
100
AcDbEntity
8
0
100
AcDbLine
10
1.0000000000000011
20
-1.1000000000000012
30
0
11
1.3086492738636934e-16
21
-1.1000000000000001
31
0
0
LWPOLYLINE
5
163
100
AcDbEntity
8
0
100
AcDbPolyline
90
24
70
1
43
0.0
10
1.05
20
-1.1000000000000003
10
1.05
20
-1.0749999999999997
42
0.41421356237309503
10
1.1000000000000005
20
-1.1250000000000002
10
1.6499999999999979
20
-1.1249999999999996
42
0.41421356237309342
10
1.6999999999999982
20
-1.0749999999999993
10
1.6999999999999982
20
-0.92500000000000004
42
0.41421356237309587
10
1.6499999999999977
20
-0.87499999999999978
10
1.4250000000000034
20
-0.875
42
-0.41421356237309015
10
1.3750000000000029
20
-0.82499999999999962
10
1.3750000000000027
20
-0.67500000000000404
42
-0.41421356237309426
10
1.4250000000000025
20
-0.62500000000000389
10
1.6500000000000008
20
-0.62500000000000067
42
0.41421356237308937
10
1.7000000000000004
20
-0.57500000000000062
10
1.7000000000000013
20
-0.42500000000000038
42
0.41421356237309503
10
1.6500000000000012
20
-0.37499999999999978
10
0.80000000000000016
20
-0.37499999999999528
42
-0.4142135623730922
10
0.75000000000000011
20
-0.32499999999999502
10
0.75000000000000011
20
-0.23800000000000032
42
0.4142135623730952
10
0.69999999999999973
20
-0.18799999999999997
10
0.20000000000000032
20
-0.188
42
0.41421356237309503
10
0.14999999999999999
20
-0.23800000000000032
10
0.14999999999999997
20
-0.99999999999999989
42
0.41421356237309548
10
0.20000000000000029
20
-1.05
10
1
20
-1.0500000000000003
42
-0.41421356237309426
0
LWPOLYLINE
5
164
100
AcDbEntity
8
0
100
AcDbPolyline
90
16
70
1
43
0.0
10
1.7000000000000002
20
-0.074999999999999845
10
1.7000000000000002
20
0.074999999999999734
42
0.41421356237309442
10
1.6499999999999999
20
0.12499999999999996
10
1.4249999999999996
20
0.12500000000000017
42
-0.41421356237309664
10
1.3749999999999993
20
0.17500000000000077
10
1.3749999999999998
20
0.3250000000000004
42
-0.41421356237309465
10
1.4250000000000003
20
0.37500000000000067
10
1.6499999999999995
20
0.37500000000000006
42
0.41421356237309914
10
1.7000000000000002
20
0.42500000000000038
10
1.7000000000000002
20
0.57499999999999984
42
0.41421356237309503
10
1.6500000000000001
20
0.62499999999999989
10
1.05
20
0.62500000000000022
42
0.41421356237309503
10
0.99999999999999989
20
0.57500000000000018
10
0.99999999999999989
20
-0.074999999999999581
42
0.41421356237309515
10
1.05
20
-0.12499999999999944
10
1.6500000000000001
20
-0.12499999999999999
42
0.41421356237309576
0
LWPOLYLINE
5
165
100
AcDbEntity
8
0
100
AcDbPolyline
90
8
70
1
43
0.0
10
1.6499999999999999
20
1.125
10
1.1000000000000005
20
1.125
42
0.41421356237309748
10
1.0500000000000003
20
1.0749999999999997
10
1.05
20
0.92500000000000038
42
0.41421356237309748
10
1.1000000000000005
20
0.875
10
1.6499999999999999
20
0.875
42
0.41421356237309587
10
1.7000000000000002
20
0.92500000000000038
10
1.6999999999999997
20
1.0749999999999997
42
0.41421356237309587
0
LWPOLYLINE
5
166
100
AcDbEntity
8
0
100
AcDbPolyline
90
4
70
1
43
0.0
10
0.94999999999999996
20
-0.17499999999999974
10
1.7500000000000002
20
-0.17499999999999974
10
1.7500000000000002
20
0.67500000000000016
10
0.95000000000000018
20
0.67500000000000016
0
LWPOLYLINE
5
167
100
AcDbEntity
8
0
100
AcDbPolyline
90
4
70
1
43
0.0
10
-1.7500000000000007
20
-1.9999999999999996
10
-1.0750000000000004
20
-2
10
-1.0750000000000002
20
-1.3250000000000004
10
-1.7500000000000007
20
-1.3249999999999995
0
LWPOLYLINE
5
168
100
AcDbEntity
8
0
100
AcDbPolyline
90
12
70
1
43
0.0
10
-1.6500000000000001
20
-1.6249999999999998
10
-1.4750000000000001
20
-1.6249999999999996
42
-0.41421356237309825
10
-1.3749999999999998
20
-1.7249999999999992
10
-1.375
20
-1.8999999999999992
42
0.41421356237309176
10
-1.3249999999999997
20
-1.9499999999999995
10
-1.1750000000000007
20
-1.9499999999999997
42
0.41421356237309992
10
-1.1250000000000004
20
-1.8999999999999997
10
-1.1250000000000002
20
-1.4250000000000005
42
0.41421356237309426
10
-1.1750000000000005
20
-1.375
10
-1.6500000000000004
20
-1.3749999999999996
42
0.41421356237309176
10
-1.7000000000000006
20
-1.4249999999999998
10
-1.7000000000000004
20
-1.5749999999999995
42
0.41421356237309176
0
LWPOLYLINE
5
169
100
AcDbEntity
8
0
100
AcDbPolyline
90
12
70
1
43
0.0
10
1.6499999999999995
20
-1.6250000000000009
10
1.4749999999999992
20
-1.6250000000000007
42
0.41421356237309992
10
1.3749999999999993
20
-1.7250000000000005
10
1.3749999999999991
20
-1.9000000000000004
42
-0.41421356237309503
10
1.3249999999999984
20
-1.9500000000000004
10
1.1749999999999996
20
-1.9500000000000002
42
-0.41421356237309342
10
1.1249999999999996
20
-1.8999999999999997
10
1.1249999999999998
20
-1.4250000000000007
42
-0.41421356237309426
10
1.1749999999999998
20
-1.375
10
1.6499999999999999
20
-1.3750000000000007
42
-0.41421356237309176
10
1.7000000000000002
20
-1.4250000000000009
10
1.6999999999999997
20
-1.5750000000000006
42
-0.41421356237309176
0
LWPOLYLINE
5
170
100
AcDbEntity
8
0
100
AcDbPolyline
90
4
70
1
43
0.0
10
1.7499999999999996
20
-2.0000000000000009
10
1.0749999999999993
20
-2
10
1.0749999999999995
20
-1.3250000000000004
10
1.7500000000000002
20
-1.3250000000000006
0
LWPOLYLINE
5
171
100
AcDbEntity
8
0
100
AcDbPolyline
90
4
70
1
43
0.0
10
-0.92500000000000004
20
-1.9999999999999998
10
0.92500000000000027
20
-1.9999999999999998
10
0.92500000000000027
20
-1.3
10
-0.92500000000000004
20
-1.3
0
LINE
5
172
100
AcDbEntity
8
0
100
AcDbLine
10
1.3086492738636934e-16
20
-1.1000000000000001
30
0
11
1.3993212155199947e-16
21
-1.3
31
0
0
LINE
5
173
100
AcDbEntity
8
0
100
AcDbLine
10
1.3993212155199947e-16
20
-1.3
30
0
11
1.8319947745342027e-16
21
-1.9999999999999998
31
0
0
LINE
5
174
100
AcDbEntity
8
0
100
AcDbLine
10
-0.87500000000000011
20
-1.8999999999999997
30
0
11
-0.87500000000000011
21
-1.4000000000000004
31
0
0
LINE
5
175
100
AcDbEntity
8
0
100
AcDbLine
10
-0.82499999999999973
20
-1.3500000000000001
30
0
11
4.6205784029870172e-18
21
-1.3500000000000001
31
0
0
LINE
5
176
100
AcDbEntity
8
0
100
AcDbLine
10
-0.82499999999999973
20
-1.9500000000000002
30
0
11
-0.67500000000000049
21
-1.9500000000000002
31
0
0
LINE
5
177
100
AcDbEntity
8
0
100
AcDbLine
10
-0.62500000000000011
20
-1.8999999999999997
30
0
11
-0.62500000000000044
21
-1.6750000000000003
31
0
0
LINE
5
178
100
AcDbEntity
8
0
100
AcDbLine
10
-0.57500000000000007
20
-1.6250000000000004
30
0
11
-0.42500000000000066
21
-1.625
31
0
0
LINE
5
179
100
AcDbEntity
8
0
100
AcDbLine
10
-0.37500000000000044
20
-1.6750000000000003
30
0
11
-0.37500000000000011
21
-1.8999999999999997
31
0
0
LINE
5
180
100
AcDbEntity
8
0
100
AcDbLine
10
-0.32499999999999979
20
-1.9500000000000002
30
0
11
-0.17500000000000043
21
-1.9500000000000002
31
0
0
LINE
5
181
100
AcDbEntity
8
0
100
AcDbLine
10
-0.12500000000000028
20
-1.8999999999999997
30
0
11
-0.12500000000000033
21
-1.6750000000000003
31
0
0
LINE
5
182
100
AcDbEntity
8
0
100
AcDbLine
10
-0.075000000000000011
20
-1.625
30
0
11
2.1459471891263117e-17
21
-1.625
31
0
0
LINE
5
183
100
AcDbEntity
8
0
100
AcDbLine
10
-0.25000000000000006
20
-1.9500000000000002
30
0
11
-0.25
21
-1.3500000000000001
31
0
0
LINE
5
184
100
AcDbEntity
8
0
100
AcDbLine
10
-0.75000000000000011
20
-1.9500000000000002
30
0
11
-0.75000000000000011
21
-1.3500000000000001
31
0
0
LINE
5
185
100
AcDbEntity
8
0
100
AcDbLine
10
-0.25000000000000006
20
-1.9500000000000002
30
0
11
-0.25000000000000011
21
-1.9999999999999998
31
0
0
LINE
5
186
100
AcDbEntity
8
0
100
AcDbLine
10
-0.25
20
-1.3500000000000001
30
0
11
-0.25000000000000006
21
-1.3
31
0
0
LINE
5
187
100
AcDbEntity
8
0
100
AcDbLine
10
-0.87500000000000011
20
-1.6500000000000001
30
0
11
-0.92500000000000004
21
-1.6500000000000001
31
0
0
LINE
5
188
100
AcDbEntity
8
0
100
AcDbLine
10
0.82500000000000007
20
-1.3500000000000001
30
0
11
2.8142471554407203e-16
21
-1.3500000000000001
31
0
0
LINE
5
189
100
AcDbEntity
8
0
100
AcDbLine
10
0.87500000000000033
20
-1.8999999999999997
30
0
11
0.87500000000000033
21
-1.4000000000000004
31
0
0
LINE
5
190
100
AcDbEntity
8
0
100
AcDbLine
10
0.82500000000000007
20
-1.9500000000000002
30
0
11
0.67500000000000071
21
-1.9500000000000002
31
0
0
LINE
5
191
100
AcDbEntity
8
0
100
AcDbLine
10
0.62500000000000044
20
-1.8999999999999997
30
0
11
0.62500000000000067
21
-1.6750000000000003
31
0
0
LINE
5
192
100
AcDbEntity
8
0
100
AcDbLine
10
0.57500000000000029
20
-1.6250000000000004
30
0
11
0.42500000000000104
21
-1.625
31
0
0
LINE
5
193
100
AcDbEntity
8
0
100
AcDbLine
10
0.37500000000000078
20
-1.6750000000000003
30
0
11
0.37500000000000056
21
-1.8999999999999997
31
0
0
LINE
5
194
100
AcDbEntity
8
0
100
AcDbLine
10
0.32500000000000023
20
-1.9500000000000002
30
0
11
0.17500000000000077
21
-1.9500000000000002
31
0
0
LINE
5
195
100
AcDbEntity
8
0
100
AcDbLine
10
0.12500000000000039
20
-1.8999999999999997
30
0
11
0.12500000000000064
21
-1.6750000000000003
31
0
0
LINE
5
196
100
AcDbEntity
8
0
100
AcDbLine
10
0.075000000000000289
20
-1.625
30
0
11
2.9858160169262662e-16
21
-1.625
31
0
0
ARC
5
197
100
AcDbEntity
8
0
100
AcDbCircle
10
0.82500000000000007
20
-1.8999999999999997
30
0
40
0.050000000000000322
210
-0
220
0
230
1
100
AcDbArc
50
-90
51
0
0
ARC
5
198
100
AcDbEntity
8
0
100
AcDbCircle
10
0.67500000000000071
20
-1.8999999999999997
30
0
40
0.050000000000000322
210
0
220
-0
230
1
100
AcDbArc
50
180
51
270
0
ARC
5
199
100
AcDbEntity
8
0
100
AcDbCircle
10
0.57500000000000018
20
-1.6750000000000007
30
0
40
0.050000000000000461
210
0
220
-0
230
1
100
AcDbArc
50
0
51
89.999999999999872
0
ARC
5
200
100
AcDbEntity
8
0
100
AcDbCircle
10
0.42500000000000104
20
-1.6750000000000003
30
0
40
0.050000000000000322
210
0
220
-0
230
1
100
AcDbArc
50
90
51
180
0
ARC
5
201
100
AcDbEntity
8
0
100
AcDbCircle
10
0.32500000000000007
20
-1.8999999999999995
30
0
40
0.0500000000000006
210
-0
220
0
230
1
100
AcDbArc
50
270.00000000000023
51
360
0
ARC
5
202
100
AcDbEntity
8
0
100
AcDbCircle
10
0.17500000000000099
20
-1.8999999999999995
30
0
40
0.0500000000000006
210
0
220
0
230
1
100
AcDbArc
50
180
51
269.99999999999972
0
ARC
5
203
100
AcDbEntity
8
0
100
AcDbCircle
10
0.075000000000000247
20
-1.6750000000000003
30
0
40
0.050000000000000384
210
0
220
0
230
1
100
AcDbArc
50
0
51
89.999999999999972
0
ARC
5
204
100
AcDbEntity
8
0
100
AcDbCircle
10
-0.074999999999999983
20
-1.6750000000000003
30
0
40
0.050000000000000322
210
0
220
-0
230
1
100
AcDbArc
50
90.000000000000043
51
180
0
ARC
5
205
100
AcDbEntity
8
0
100
AcDbCircle
10
-0.1750000000000006
20
-1.8999999999999997
30
0
40
0.050000000000000322
210
0
220
0
230
1
100
AcDbArc
50
-89.999999999999801
51
0
0
ARC
5
206
100
AcDbEntity
8
0
100
AcDbCircle
10
-0.32499999999999968
20
-1.8999999999999995
30
0
40
0.050000000000000461
210
0
220
0
230
1
100
AcDbArc
50
180
51
269.99999999999989
0
ARC
5
207
100
AcDbEntity
8
0
100
AcDbCircle
10
-0.42500000000000082
20
-1.6750000000000003
30
0
40
0.050000000000000322
210
0
220
-0
230
1
100
AcDbArc
50
0
51
89.999999999999801
0
ARC
5
208
100
AcDbEntity
8
0
100
AcDbCircle
10
-0.57499999999999996
20
-1.6750000000000007
30
0
40
0.050000000000000322
210
0
220
-0
230
1
100
AcDbArc
50
90.000000000000128
51
180
0
ARC
5
209
100
AcDbEntity
8
0
100
AcDbCircle
10
-0.67500000000000049
20
-1.8999999999999997
30
0
40
0.050000000000000322
210
0
220
0
230
1
100
AcDbArc
50
-90
51
0
0
ARC
5
210
100
AcDbEntity
8
0
100
AcDbCircle
10
-0.82499999999999973
20
-1.8999999999999997
30
0
40
0.050000000000000322
210
0
220
0
230
1
100
AcDbArc
50
180
51
270
0
ARC
5
211
100
AcDbEntity
8
0
100
AcDbCircle
10
-0.82499999999999973
20
-1.4000000000000004
30
0
40
0.050000000000000322
210
0
220
-0
230
1
100
AcDbArc
50
90
51
180
0
ARC
5
212
100
AcDbEntity
8
0
100
AcDbCircle
10
0.82500000000000007
20
-1.4000000000000004
30
0
40
0.050000000000000322
210
0
220
-0
230
1
100
AcDbArc
50
0
51
90
0
LINE
5
213
100
AcDbEntity
8
0
100
AcDbLine
10
-0.74999999999999967
20
-0.13800000000000001
30
0
11
-0.45000000000000007
21
-0.13799999999999998
31
0
0
LINE
5
214
100
AcDbEntity
8
0
100
AcDbLine
10
-0.45000000000000007
20
-0.13799999999999998
30
0
11
-0.45000000000000012
21
-0.188
31
0
0
ENDSEC
0
SECTION
2
OBJECTS
0
DICTIONARY
5
C
100
AcDbDictionary
3
ACAD_GROUP
350
D
3
ACAD_MLINESTYLE
350
17
0
DICTIONARY
5
D
100
AcDbDictionary
0
DICTIONARY
5
1A
330
C
100
AcDbDictionary
0
DICTIONARY
5
17
100
AcDbDictionary
0
ENDSEC
0
EOF
